<?xml version="1.0" encoding="utf-8"?>
<!-- Generator: Adobe Illustrator 16.0.0, SVG Export Plug-In . SVG Version: 6.00 Build 0)  -->
<!DOCTYPE svg PUBLIC "-//W3C//DTD SVG 1.1//EN" "http://www.w3.org/Graphics/SVG/1.1/DTD/svg11.dtd">
<svg version="1.1" id="Layer_1" xmlns="http://www.w3.org/2000/svg" xmlns:xlink="http://www.w3.org/1999/xlink" x="0px" y="0px"
	 width="1280px" height="8024.5px" viewBox="0 0 1280 8024.5" enable-background="new 0 0 1280 8024.5" xml:space="preserve">
<path fill="#D8D8D8" d="M1056.001,258.652c0,0,135.999-163.332,95.333-262.666s-10.666-158.667-110.666-138.667
	s-154.667-5.8-128.667,132.767S988.967,360.489,1056.001,258.652z"/>
<path fill="#F3F3F3" d="M175.336,164.188c0,0,61.416-12.828,58.708,89.791c-2.708,102.618-49.375,32.068-9.375,147.514
	c40,115.446-24.667,83.38-68,66.988S51.335,425.723,70.002,365.149s41.334-161.767,24.667-171.03
	c-16.667-9.265-11.542-71.975,8.667-49.171S175.336,164.188,175.336,164.188z"/>
<path fill="#F3F3F3" d="M268.875,1536.103c0,0,173.999-39.016,73.58-168.843c-100.418-129.827-222.267-328.286-153.146-383.488
	S305.439,819.413,201.8,860.849s-387.309,126.403-257.794,262.708s238.675,109.064,241.283,205.968s-125.786,138.809-62.705,197.398
	c63.081,58.589,116.403,28.693,141.306,12.667C288.794,1523.564,268.875,1536.103,268.875,1536.103z"/>
<path fill="#D8D8D8" d="M129.615,1121.864c0,0,145.556,87.364,125.564-8.103c-19.992-95.466-62.088-185.307-118.19-165.06
	C80.886,968.947,15.196,1033.391,129.615,1121.864z"/>
<path fill="#D8D8D8" d="M1209.573,1548.733c0,0,49.334,37.334-14.666,64s-78,71.666-106.666,170.333
	c-28.668,98.667-76,124.667-58.668,178.667c17.334,54-92,23.334-71.332-32c20.666-55.334-6.668-113.334,9.332-142.667
	s37.334-65.333,68.668-96c31.332-30.667,62.666-121.001,74-145.667c11.332-24.666,18.666-50.666,47.332-35.333
	C1186.241,1525.399,1209.573,1548.733,1209.573,1548.733z"/>
<path fill="#F3F3F3" d="M257.6,2987.494c0,0,103.87-37.283,87.225-98.277c-16.646-60.997-131.385-108.94-201.848-97.343
	c-70.465,11.596-152.811-43.277-189.507-11.857c-36.696,31.419-6.267,51.497,44.728,108.848
	c61.559,69.232,58.98,131.562,93.615,116.19c34.634-15.371,50.098-64.409,88.846-51.284
	C219.406,2966.894,210.52,3004.465,257.6,2987.494z"/>
<path fill="#D8D8D8" d="M248.266,2210.326c-5.115-80.559,13.174-158.588-37.082-148.331
	C-160.924,2137.944,253.381,2290.886,248.266,2210.326z"/>
<path fill="#F3F3F3" d="M428.211,4340.341c0,0-155.4-87.456-167.669,76.215c-12.271,163.672-54.549,392.682-142.853,387.44
	s-196.286,44.406-91.547,82.977c104.739,38.572,372.383,165.28,367.368-22.677s-104.356-240.771-41.442-314.52
	s186.361-18.96,178.699-104.711c-7.661-85.751-67.29-99.223-96.519-103.981C405.02,4336.326,428.211,4340.341,428.211,4340.341z"/>
<path fill="#F3F3F3" d="M878.938,2434.92c0,0-164.496,68.837-42.926,179.107c121.57,110.271,276.241,284.368,217.835,350.805
	c-58.404,66.437-85.605,182.131,9.193,123.213c94.798-58.917,359.242-192.173,207.891-303.733
	c-151.352-111.561-254.067-65.655-273.577-160.609s99.579-158.663,27.226-205.322c-72.354-46.657-119.627-7.899-141.346,12.234
	C861.518,2450.748,878.938,2434.92,878.938,2434.92z"/>
<path fill="#D8D8D8" d="M1044.082,2848.658c0,0-158.591-60.57-122.216,29.932c36.376,90.501,93.53,171.597,145.229,141.853
	C1118.794,2990.7,1172.205,2915.764,1044.082,2848.658z"/>
<path fill="#F3F3F3" d="M1001.81,4364.648c0,0-61.416,12.828-58.708-89.791c2.708-102.618,49.374-32.068,9.374-147.514
	c-40-115.446,24.667-83.38,68-66.988c43.334,16.392,105.334,42.759,86.668,103.332c-18.668,60.573-41.334,161.767-24.668,171.03
	c16.668,9.265,11.542,71.975-8.666,49.171S1001.81,4364.648,1001.81,4364.648z"/>
<path fill="#D8D8D8" d="M208.429,3458.957c0,0,84.056,1.26,35.362,81.907c-48.693,80.646-27.872,141.201,20.007,272.343
	c47.877,131.142,16.909,197.665,79.294,242.902c62.387,45.234-82.048,99.494-103.87,22.26
	c-21.822-77.235-98.378-118.817-104.42-163.813c-6.042-44.997-11.595-101.584-1.909-160.363
	c9.686-58.778-28.574-182.934-35.978-219.066c-7.405-36.132-20.262-70.513,23.467-76.749
	C164.114,3452.14,208.429,3458.957,208.429,3458.957z"/>
<path fill="#D8D8D8" d="M1180.383,3666.072c0,0-129.313,36.813-61.248-65.446c68.065-102.259,33.979-190.884,137.602-203.155
	s204.42-53.175,203.105-8.181s-6.768,103.622-85.848,104.986c-79.081,1.363-184.066,79.081-179.977,104.986
	S1180.383,3666.072,1180.383,3666.072z"/>
<path fill="#D8D8D8" d="M1123.725,4986.73c0,0,164.299-42.724,82.148-95.308c-82.148-52.584-175.76-85.449-200.596-31.222
	C980.441,4914.428,980.441,5006.45,1123.725,4986.73z"/>
<path fill="#D8D8D8" d="M323.725,5380.73c0,0,164.299-42.724,82.148-95.308c-82.148-52.584-175.76-85.449-200.596-31.222
	C180.441,5308.428,180.441,5400.45,323.725,5380.73z"/>
<path fill="#F3F3F3" d="M1068.025,7195.632c0,0-103.871,37.283-87.225,98.277c16.646,60.996,131.385,108.94,201.848,97.343
	c70.465-11.597,152.811,43.277,189.506,11.856c36.697-31.419,6.268-51.496-44.727-108.848
	c-61.559-69.231-58.98-131.561-93.615-116.189s-50.098,64.409-88.846,51.284C1106.219,7216.232,1115.105,7178.661,1068.025,7195.632
	z"/>
<path fill="#D8D8D8" d="M1077.358,7972.8c5.115,80.559-13.174,158.588,37.082,148.331
	C1486.548,8045.182,1072.243,7892.24,1077.358,7972.8z"/>
<path fill="#F3F3F3" d="M897.413,5842.785c0,0,155.399,87.456,167.67-76.215c12.271-163.672,54.549-392.682,142.853-387.44
	s196.285-44.406,91.547-82.977c-104.739-38.572-372.383-165.28-367.368,22.677c5.016,187.957,104.356,240.771,41.442,314.52
	s-186.361,18.96-178.699,104.711c7.661,85.751,67.289,99.223,96.518,103.981C920.605,5846.8,897.413,5842.785,897.413,5842.785z"/>
<path fill="#F3F3F3" d="M446.686,7748.206c0,0,164.496-68.838,42.926-179.107c-121.57-110.271-276.241-284.367-217.835-350.805
	c58.404-66.438,85.605-182.131-9.193-123.213c-94.798,58.916-359.242,192.173-207.891,303.732
	c151.352,111.561,254.067,65.654,273.577,160.609s-99.579,158.662-27.226,205.322c72.354,46.656,119.627,7.898,141.346-12.234
	C464.107,7732.378,446.686,7748.206,446.686,7748.206z"/>
<path fill="#D8D8D8" d="M281.542,7334.468c0,0,158.591,60.57,122.216-29.932c-36.376-90.501-93.53-171.597-145.229-141.854
	C206.831,7192.426,153.419,7267.362,281.542,7334.468z"/>
<path fill="#F3F3F3" d="M323.815,5818.478c0,0,61.416-12.828,58.708,89.791c-2.708,102.618-49.374,32.068-9.374,147.514
	c40,115.446-24.667,83.38-68,66.988c-43.334-16.392-105.334-42.759-86.668-103.332c18.668-60.573,41.334-161.767,24.668-171.03
	c-16.668-9.265-11.542-71.975,8.666-49.171S323.815,5818.478,323.815,5818.478z"/>
<path fill="#D8D8D8" d="M1117.195,6724.169c0,0-84.056-1.26-35.361-81.906c48.693-80.646,27.871-141.201-20.008-272.344
	c-47.877-131.142-16.909-197.665-79.295-242.902c-62.387-45.234,82.049-99.494,103.871-22.26
	c21.821,77.235,98.378,118.817,104.42,163.813c6.041,44.997,11.595,101.584,1.908,160.363
	c-9.686,58.778,28.574,182.934,35.979,219.065c7.404,36.133,20.262,70.514-23.467,76.749
	C1161.51,6730.985,1117.195,6724.169,1117.195,6724.169z"/>
<path fill="#D8D8D8" d="M145.242,6517.054c0,0,129.313-36.813,61.248,65.446c-68.065,102.259-33.979,190.884-137.602,203.155
	s-204.42,53.175-203.105,8.181s6.768-103.622,85.848-104.986c79.081-1.363,184.066-79.081,179.977-104.986
	S145.242,6517.054,145.242,6517.054z"/>
<path fill="#D8D8D8" d="M201.9,5196.396c0,0-164.299,42.724-82.148,95.308c82.148,52.584,175.76,85.449,200.596,31.222
	C345.183,5268.698,345.183,5176.676,201.9,5196.396z"/>
<path fill="#D8D8D8" d="M1001.9,4802.396c0,0-164.299,42.724-82.148,95.308c82.148,52.584,175.76,85.449,200.596,31.222
	C1145.184,4874.698,1145.184,4782.676,1001.9,4802.396z"/>
</svg>
