<?xml version="1.0" encoding="utf-8"?>
<!-- Generator: Adobe Illustrator 16.0.0, SVG Export Plug-In . SVG Version: 6.00 Build 0)  -->
<!DOCTYPE svg PUBLIC "-//W3C//DTD SVG 1.1//EN" "http://www.w3.org/Graphics/SVG/1.1/DTD/svg11.dtd">
<svg version="1.1" id="Camada_1" xmlns="http://www.w3.org/2000/svg" xmlns:xlink="http://www.w3.org/1999/xlink" x="0px" y="0px"
	 width="600px" height="600px" viewBox="0 0 600 600" enable-background="new 0 0 600 600" xml:space="preserve">
<g>
	<path d="M200.319,278.311v26.229h105.237v0.625c-2.286,1.456-4.841,3.437-7.65,5.933l-97.587,83.692v32.632l106.787-95.455
		c0-17.887,0-35.771,0-53.656H200.319z"/>
	<path d="M414.269,278.311v26.229H309.03v0.625c2.288,1.456,4.842,3.437,7.652,5.933l97.586,83.692v32.632l-106.787-95.455
		c0-17.887,0-35.771,0-53.656H414.269z"/>
	<g>
		<path d="M199.854,244.032v-26.231h105.237v-0.624c-2.286-1.457-4.84-3.436-7.65-5.934l-97.586-83.691V94.92l106.786,95.456
			c0,17.885,0,35.771,0,53.656H199.854z"/>
		<path d="M412.495,244.032v-26.231H307.259v-0.624c2.286-1.457,4.84-3.436,7.65-5.934l97.586-83.691V94.92l-106.786,95.456
			c0,17.885,0,35.771,0,53.656H412.495z"/>
	</g>
	<path fill-rule="evenodd" clip-rule="evenodd" d="M200.319,394.79l107.965-89.871l105.984,89.871l64.189-98.406l-19.575,190.903
		c0,0-0.745,4.763-1.002,7.153c-1.112,10.479-1.097,10.485-11.881,10.485c-93.001,0-186.003-0.075-279.003,0.154
		c-6.094,0.013-8.286-7.572-8.286-7.572l-22.057-200.736L200.319,394.79z M171.107,491.869c91.934,0,182.897,0,274.35,0
		c5.714-51.31,9.09-89.104,12.883-128.242l-44.071,63.795L308.284,325.304L200.319,427.422c0,0-43.099-63.765-43.465-63.627
		C162.535,414.839,165.397,440.557,171.107,491.869z"/>
	<rect x="199.854" y="122.24" width="26.228" height="111.452"/>
	<rect x="386.268" y="123.547" width="26.227" height="111.452"/>
	<rect x="300.489" y="315.764" width="14.524" height="16.026"/>
	<rect x="305.861" y="278.311" width="2.198" height="37.453"/>
</g>
</svg>
